<svg width="24" height="24" viewBox="0 0 24 24" fill="none" xmlns="http://www.w3.org/2000/svg">
<path d="M12 4C16.4183 4 20 7.58172 20 12C20 16.4183 16.4183 20 12 20C7.58172 20 4 16.4183 4 12C4 7.58172 7.58172 4 12 4ZM11.6846 6.07031C11.4085 6.07031 11.1847 6.29427 11.1846 6.57031V12.5703C11.1846 12.8465 11.4084 13.0703 11.6846 13.0703H15.6846C15.9607 13.0703 16.1846 12.8465 16.1846 12.5703C16.1845 12.2943 15.9606 12.0703 15.6846 12.0703H12.1846V6.57031C12.1845 6.29427 11.9606 6.07031 11.6846 6.07031Z" fill="#6A7282" fill-opacity="0.5"/>
</svg>
