<svg width="24" height="24" viewBox="0 0 24 24" fill="none" xmlns="http://www.w3.org/2000/svg">
<path d="M13.5771 6.37207C13.5771 6.92543 13.778 7.46459 14.1475 7.86816C14.5185 8.27323 15.0318 8.50977 15.5771 8.50977H18V18.3994C18 18.8237 17.8419 19.2312 17.5605 19.5312C17.2793 19.8312 16.8978 20 16.5 20H7.5C7.10224 20 6.72074 19.8312 6.43945 19.5312C6.15815 19.2312 6 18.8237 6 18.3994V5.59961C6.00012 5.17544 6.15825 4.76869 6.43945 4.46875C6.72075 4.16873 7.1022 4 7.5 4H13.5771V6.37207ZM8.99512 16.4004C8.71897 16.4004 8.49512 16.6242 8.49512 16.9004C8.49522 17.1764 8.71904 17.4004 8.99512 17.4004H14.9951C15.2712 17.4004 15.495 17.1764 15.4951 16.9004C15.4951 16.6243 15.2713 16.4004 14.9951 16.4004H8.99512ZM8.99512 11.9912C8.719 11.9912 8.49516 12.2151 8.49512 12.4912C8.49512 12.7674 8.71897 12.9912 8.99512 12.9912H14.9951C15.2713 12.9912 15.4951 12.7673 15.4951 12.4912C15.4951 12.2151 15.2712 11.9912 14.9951 11.9912H8.99512ZM8.99512 7.57227C8.7191 7.57227 8.49532 7.79629 8.49512 8.07227C8.49512 8.34841 8.71897 8.57227 8.99512 8.57227H10.9951C11.2713 8.57227 11.4951 8.34841 11.4951 8.07227C11.4949 7.79629 11.2711 7.57227 10.9951 7.57227H8.99512ZM17.54 7.50977H15.5771C15.3268 7.50977 15.0764 7.4016 14.8848 7.19238C14.6921 6.98173 14.5771 6.68704 14.5771 6.37207V4.34863L17.54 7.50977Z" fill="#6A7282" fill-opacity="0.5"/>
</svg>
