<svg width="24" height="24" viewBox="0 0 24 24" fill="none" xmlns="http://www.w3.org/2000/svg">
<path d="M10 18C10.2027 18.304 10.4942 18.5565 10.8453 18.7321C11.1964 18.9076 11.5946 19 12 19C12.4054 19 12.8036 18.9076 13.1547 18.7321C13.5058 18.5565 13.7973 18.304 14 18" fill="#101828"/>
<path d="M10 18C10.2027 18.304 10.4942 18.5565 10.8453 18.7321C11.1964 18.9076 11.5946 19 12 19C12.4054 19 12.8036 18.9076 13.1547 18.7321C13.5058 18.5565 13.7973 18.304 14 18H10Z" stroke="#101828" stroke-linecap="round" stroke-linejoin="round"/>
<path d="M5.20321 13.7724C5.10161 13.8774 5.03455 14.008 5.01021 14.1482C4.98586 14.2885 5.00528 14.4324 5.06609 14.5625C5.12691 14.6925 5.2265 14.8031 5.35275 14.8808C5.479 14.9585 5.62647 14.9999 5.77723 15H18.2219C18.3727 15.0001 18.5202 14.9588 18.6465 14.8813C18.7728 14.8038 18.8725 14.6933 18.9335 14.5633C18.9945 14.4333 19.0141 14.2895 18.99 14.1492C18.9658 14.0089 18.8989 13.8783 18.7975 13.7731C17.763 12.7677 16.6663 11.6993 16.6663 8.4C16.6663 7.23305 16.1747 6.11389 15.2995 5.28873C14.4243 4.46357 13.2373 4 11.9996 4C10.7619 4 9.57486 4.46357 8.69968 5.28873C7.82449 6.11389 7.33281 7.23305 7.33281 8.4C7.33281 11.6993 6.23535 12.7677 5.20321 13.7724Z" fill="#101828"/>
</svg>
