<svg width="24" height="24" viewBox="0 0 24 24" fill="none" xmlns="http://www.w3.org/2000/svg">
<path d="M12 4C12.4876 4 12.9576 4.17433 13.3184 4.48828C13.6791 4.80225 13.905 5.23369 13.9512 5.69824C13.979 5.99814 14.0818 6.28717 14.251 6.54102C14.4203 6.79501 14.6512 7.00666 14.9238 7.15723C15.1964 7.30771 15.503 7.3931 15.8174 7.40625C16.1319 7.4194 16.4451 7.35963 16.7305 7.23242C17.1734 7.03998 17.6754 7.01215 18.1387 7.1543C18.602 7.29652 18.9939 7.59871 19.2373 8.00195C19.4807 8.40516 19.5587 8.88077 19.4561 9.33594C19.3534 9.79113 19.0772 10.1937 18.6816 10.4648C18.424 10.6378 18.2135 10.8676 18.0684 11.1348C17.9232 11.402 17.8477 11.6988 17.8477 12C17.8477 12.3011 17.9232 12.5981 18.0684 12.8652C18.2135 13.1324 18.4241 13.3622 18.6816 13.5352C19.0771 13.8063 19.3534 14.2089 19.4561 14.6641C19.5586 15.1192 19.4807 15.5949 19.2373 15.998C18.9939 16.4012 18.602 16.7035 18.1387 16.8457C17.6755 16.9878 17.1734 16.96 16.7305 16.7676C16.4451 16.6404 16.1319 16.5806 15.8174 16.5938C15.5029 16.6069 15.1965 16.6923 14.9238 16.8428C14.6512 16.9933 14.4203 17.205 14.251 17.459C14.0818 17.7129 13.9789 18.0018 13.9512 18.3018C13.905 18.7663 13.6791 19.1977 13.3184 19.5117C12.9577 19.8256 12.4875 20 12 20C11.5125 19.9999 11.0423 19.8256 10.6816 19.5117C10.3211 19.1978 10.0959 18.7662 10.0498 18.3018C10.0221 18.0016 9.91932 17.712 9.75 17.458C9.58066 17.204 9.34988 16.9924 9.07715 16.8418C8.80438 16.6912 8.49722 16.6058 8.18262 16.5928C7.86808 16.5797 7.55486 16.6402 7.26953 16.7676C6.82661 16.96 6.32452 16.9878 5.86133 16.8457C5.39805 16.7035 5.00612 16.4012 4.7627 15.998C4.51933 15.5949 4.44135 15.1192 4.54395 14.6641C4.64664 14.2089 4.92284 13.8063 5.31836 13.5352C5.57592 13.3622 5.78647 13.1324 5.93164 12.8652C6.07679 12.5981 6.15232 12.3011 6.15234 12C6.15234 11.6989 6.07678 11.402 5.93164 11.1348C5.78647 10.8676 5.57595 10.6378 5.31836 10.4648C4.92333 10.1935 4.64835 9.79084 4.5459 9.33594C4.44353 8.88111 4.52056 8.40584 4.76367 8.00293C5.00683 7.6 5.39848 7.29868 5.86133 7.15625C6.32414 7.01385 6.82563 7.04067 7.26855 7.23242C7.55388 7.35963 7.86718 7.4194 8.18164 7.40625C8.49602 7.3931 8.8026 7.3077 9.0752 7.15723C9.34785 7.00666 9.57875 6.79501 9.74805 6.54102C9.91722 6.28717 10.0201 5.99815 10.0479 5.69824L10.0752 5.52539C10.1541 5.12744 10.3662 4.76298 10.6816 4.48828C11.0423 4.17439 11.5125 4.00009 12 4ZM12 9.5957C10.6129 9.59593 9.48842 10.6724 9.48828 12C9.48828 13.3277 10.6128 14.4041 12 14.4043C13.3874 14.4043 14.5127 13.3279 14.5127 12C14.5126 10.6723 13.3873 9.5957 12 9.5957Z" fill="#101828"/>
</svg>
