<svg width="24" height="24" viewBox="0 0 24 24" fill="none" xmlns="http://www.w3.org/2000/svg">
<path d="M18.5 18.4697C18.4998 19.3126 17.8532 19.996 17.0557 19.9961H6.94434C6.14679 19.996 5.50024 19.3126 5.5 18.4697V11.8438H18.5V18.4697ZM7.23926 7.75684C7.23926 8.58526 7.91083 9.25684 8.73926 9.25684C9.56769 9.25684 10.2393 8.58526 10.2393 7.75684V6.25684H13.7607V7.75684C13.7607 8.58526 14.4323 9.25684 15.2607 9.25684C16.0892 9.25684 16.7607 8.58526 16.7607 7.75684V6.25684H17.0557C17.8534 6.2569 18.5 6.94013 18.5 7.7832V10.8438H5.5V7.7832C5.5 6.94013 6.14664 6.2569 6.94434 6.25684H7.23926V7.75684Z" fill="#6A7282" fill-opacity="0.5"/>
<path d="M8.73828 4.74255V7.74094V4.74255Z" fill="#6A7282" fill-opacity="0.5"/>
<path d="M8.73828 4.74255V7.74094" stroke="#6A7282" stroke-opacity="0.5" stroke-width="1.5" stroke-linecap="round" stroke-linejoin="round"/>
<path d="M15.2617 4.74255V7.74094V4.74255Z" fill="#6A7282" fill-opacity="0.5"/>
<path d="M15.2617 4.74255V7.74094" stroke="#6A7282" stroke-opacity="0.5" stroke-width="1.5" stroke-linecap="round" stroke-linejoin="round"/>
</svg>
