<svg width="20" height="26" viewBox="0 0 20 26" fill="none" xmlns="http://www.w3.org/2000/svg">
<path d="M12 4.94238C12 5.7836 12.3664 6.57071 12.9844 7.13574C13.5993 7.69789 14.4156 8 15.25 8H20V22.5996C20 23.4813 19.672 24.3396 19.0703 24.9814C18.4666 25.6252 17.6334 26 16.75 26H3.25C2.36667 26 1.5334 25.6252 0.929688 24.9814C0.328028 24.3396 0 23.4812 0 22.5996V3.40039C1.66718e-05 2.51877 0.328001 1.66038 0.929688 1.01855C1.5334 0.374777 2.36667 4.29807e-05 3.25 0H12V4.94238ZM5 18C4.44772 18 4 18.4477 4 19C4 19.5523 4.44772 20 5 20H15C15.5523 20 16 19.5523 16 19C16 18.4477 15.5523 18 15 18H5ZM5 12C4.44772 12 4 12.4477 4 13C4 13.5523 4.44772 14 5 14H15C15.5523 14 16 13.5523 16 13C16 12.4477 15.5523 12 15 12H5ZM5 6C4.44772 6 4 6.44772 4 7C4 7.55228 4.44772 8 5 8H7C7.55228 8 8 7.55228 8 7C8 6.44772 7.55228 6 7 6H5ZM14 0.220703C14.0367 0.250129 14.0719 0.28169 14.1045 0.316406L19.4326 6H15.25C14.891 6 14.563 5.86855 14.334 5.65918C14.108 5.45255 14 5.19245 14 4.94238V0.220703Z" fill="#4C2BF5"/>
</svg>
